<svg width="1339" height="1435.51" viewBox="0 0 1339 1435.51" xmlns="http://www.w3.org/2000/svg" xmlns:xlink="http://www.w3.org/1999/xlink" xml:space="preserve" overflow="hidden"><defs></defs><path d="M0.02 1401.76C1.8 1400.02 4.18 1398.67 5.37 1396.54 83.69 1262.49 161.81 1128.44 240.03 994.3 283.2 920.27 326.27 846.14 369.44 772.11 371.42 768.73 372.91 765.15 374.59 761.77 347.06 723.11 333.2 679.23 320.43 635.45 297.46 556.68 267.56 480.53 232.9 406.11 205.28 346.77 176.56 287.91 147.75 229.05 134.68 202.38 120.42 176.28 106.46 150.09 101.61 140.91 99.93 131.92 101.81 121.38 106.86 92.29 110.92 63.01 114.68 33.72 116.56 19.22 121.41 7.14 135.37-0.01 140.72 0.09 146.06 0.09 151.41 0.18 161.81 5.21 168.04 13.52 173.79 23.18 230.92 119.05 288.45 214.64 345.78 310.41 411.43 420.01 476.97 529.7 542.52 639.4 543.02 640.17 543.51 640.85 544.6 642.3 547.57 642.3 551.04 642.49 554.5 642.4 592.72 641.53 629.65 649.36 666.58 657.57 711.23 667.52 755.69 678.73 800.54 687.43 836.68 694.39 873.41 698.83 910.05 703.47 949.75 708.59 989.46 713.23 1029.26 717.19 1068.17 721.06 1107.28 723.67 1146.29 726.76 1172.43 728.79 1198.57 731.01 1224.81 732.56 1233.72 733.04 1241.35 735.75 1248.08 741.07 1274.71 762.24 1301.35 783.4 1327.88 804.66 1336 811.14 1340.26 819.64 1338.67 829.98 1336.59 844.28 1326.1 852.69 1311.05 852.79 1307.49 852.79 1303.92 852.69 1300.36 852.69 1061.64 850.27 822.82 847.86 584.1 845.54 578.36 845.44 572.61 845.44 567.07 845.35 544.79 889.32 512.02 924.41 478.26 958.43 417.56 1019.51 363.7 1085.91 313.6 1155.3 268.65 1217.44 225.28 1280.75 181.32 1343.66 173 1355.55 165.08 1367.63 157.46 1379.9 152.61 1387.73 146.07 1392.95 137.46 1396.33 106.37 1408.31 75.48 1420.49 44.29 1432.19 25.87 1439.15 15.48 1435.28 4.98 1418.95 3.89 1417.31 1.91 1416.34 0.23 1414.99-0.08 1410.46 0.02 1406.11 0.02 1401.76L0.02 1401.76ZM94.97 1352.18C106.75 1350.83 112.69 1346.57 117.74 1338.94 170.22 1259.11 224.58 1180.54 282.1 1104.09 330.91 1039.24 381.91 976.13 439.93 918.63 457.36 901.33 472.8 882.1 489.04 863.54 490.82 861.51 491.71 858.71 493.69 855.23 458.74 853.97 431.41 840.06 409.23 813.87 304.18 993.72 200.22 1171.84 94.97 1352.18L94.97 1352.18ZM161.8 110.95C156.45 119.94 156.75 126.51 160.51 133.57 169.82 150.87 179.12 168.27 187.94 185.76 227.94 264.91 267.25 344.36 302.3 425.73 324.97 478.21 346.06 531.17 363.09 585.68 373.39 618.93 384.87 651.79 395.96 684.74 397.05 688.12 399.23 691.22 400.42 693.44 412.8 682.33 423 670.34 435.77 662.22 448.84 653.91 464.29 649.27 479.93 642.5 374.38 466.13 268.54 289.36 161.8 110.95L161.8 110.95ZM1227.78 797.24C1221.05 786.9 1212.33 785.35 1203.32 784.68 1173.12 782.55 1142.92 780.81 1112.72 778.4 1073.21 775.31 1033.71 772.5 994.3 768.06 942.12 762.26 889.94 756.17 838.06 748.15 795.88 741.67 754.1 732.78 712.21 724.09 677.36 716.84 642.8 708.34 608.15 700.6 602.9 699.44 597.36 699.54 590.33 698.96 605.97 730.18 606.37 760.14 595.68 790.87 807.07 793.08 1016.58 795.11 1227.78 797.24L1227.78 797.24ZM494.98 801.1C523.59 801.2 548.05 777.71 548.15 749.97 548.25 722.52 523.59 698.36 495.38 698.26 466.96 698.16 442.51 721.84 442.51 749.68 442.41 777.81 465.97 801.01 494.98 801.1L494.98 801.1Z" fill="#312783" opacity="0.03"/></svg>